<svg xmlns="http://www.w3.org/2000/svg" width="30" height="30" fill="none">
    <g fill="#BABFC5" clip-path="url(#a)">
        <path d="m15.755 11.335-2.08-2.08a3.75 3.75 0 0 0-5.304 5.302l2.652 2.652a3.75 3.75 0 0 0 6.036-1.034l-.733-.734a1.235 1.235 0 0 0-.249-.193 2.5 2.5 0 0 1-4.17 1.077l-2.652-2.651a2.5 2.5 0 1 1 3.535-3.536l1.357 1.357a5.02 5.02 0 0 1 1.609-.16h-.001Z"/>
        <path d="m15.233 12.581.209.209c.322.322.538.71.647 1.12.424.114.81.337 1.12.648l.21.208a3.756 3.756 0 0 0-.36-1.826 3.75 3.75 0 0 0-1.826-.359Z"/>
        <path d="M18.093 13.674a3.75 3.75 0 0 0-6.037 1.034l.971.97a2.5 2.5 0 0 1 4.183-1.12l2.651 2.651a2.5 2.5 0 1 1-3.535 3.536l-1.357-1.357a5.025 5.025 0 0 1-1.609.159l2.082 2.081a3.75 3.75 0 0 0 5.303-5.303l-2.652-2.651Z"/>
        <path d="M12.056 17.943c.57.27 1.198.394 1.827.359l-.209-.209a2.487 2.487 0 0 1-.647-1.12 2.487 2.487 0 0 1-1.12-.648l-.21-.208a3.762 3.762 0 0 0 .36 1.826Z"/>
    </g>
    <defs>
        <clipPath id="a">
            <path fill="#fff" d="M15 .857 29.142 15 15 29.142.858 15z"/>
        </clipPath>
    </defs>
</svg>
